<svg id="Group_19" data-name="Group 19" xmlns="http://www.w3.org/2000/svg" width="109.753" height="109.754" viewBox="0 0 109.753 109.754">
  <g id="book">
    <path id="Path_447" data-name="Path 447" d="M54.877,0H31.1a1.829,1.829,0,0,0-1.829,1.829v12.8H1.829A1.829,1.829,0,0,0,0,16.463v91.461a1.829,1.829,0,0,0,1.829,1.829H54.877a1.829,1.829,0,0,0,1.829-1.829V1.829A1.829,1.829,0,0,0,54.877,0ZM53.048,95.12H32.926V91.462H53.048ZM3.658,27.438H29.268V82.315H3.658Zm49.389-7.317H32.926V14.634H53.048ZM3.658,85.974H29.268v5.488H3.658ZM32.926,87.8V23.78H53.048V87.8ZM53.048,3.658v7.317H32.926V3.658ZM29.268,18.292V23.78H3.658V18.292ZM3.658,95.12H29.268V106.1H3.658ZM32.926,106.1V98.778H53.048V106.1Zm0,0" fill="#0090ff"/>
    <path id="Path_448" data-name="Path 448" d="M102.95,98.406,81,14.262a1.827,1.827,0,0,0-2.242-1.306L51.319,20.273a1.828,1.828,0,0,0-1.3,2.228l21.951,84.145a1.824,1.824,0,0,0,2.242,1.3l27.438-7.317A1.829,1.829,0,0,0,102.95,98.406Zm-46.016-63.9,23.9-6.373.86,3.292L57.8,37.813Zm25.688.469,10.609,40.7-23.9,6.376-10.609-40.7ZM94.163,79.217,96.036,86.4l-23.9,6.373-1.866-7.176ZM77.923,16.963,79.915,24.6l-23.9,6.371-1.99-7.633Zm-2.876,86.979-1.992-7.637,23.9-6.375,1.99,7.633Zm0,0" transform="translate(6.745 1.741)" fill="#0090ff"/>
    <path id="Path_449" data-name="Path 449" d="M22.91,29.01H8.276a1.829,1.829,0,0,0-1.829,1.829V45.473A1.829,1.829,0,0,0,8.276,47.3H22.91a1.829,1.829,0,0,0,1.829-1.829V30.839A1.829,1.829,0,0,0,22.91,29.01ZM21.08,43.644H10.105V32.668H21.08Zm0,0" transform="translate(0.87 3.916)" fill="#0090ff"/>
  </g>
</svg>
