<svg id="Group_18" data-name="Group 18" xmlns="http://www.w3.org/2000/svg" width="130.984" height="127.629" viewBox="0 0 130.984 127.629">
  <g id="graph">
    <path id="Path_438" data-name="Path 438" d="M81.677,32.4a6.4,6.4,0,1,0-5.11-2.555L66.058,44.527a6.378,6.378,0,0,0-6.345,1.4l-7-3.975a6.4,6.4,0,1,0-12.5,0l-7,3.975a6.386,6.386,0,1,0,1.9,3.335l7-3.975a6.38,6.38,0,0,0,8.707,0l7,3.975a6.4,6.4,0,1,0,11.362-2.5L79.685,32.078A6.376,6.376,0,0,0,81.677,32.4Zm0-8.954A2.558,2.558,0,1,1,79.118,26,2.561,2.561,0,0,1,81.677,23.443ZM28.846,53.162A2.559,2.559,0,1,1,31.4,50.6,2.561,2.561,0,0,1,28.846,53.162Zm17.61-10A2.558,2.558,0,1,1,49.015,40.6,2.561,2.561,0,0,1,46.456,43.163Zm17.61,10A2.559,2.559,0,1,1,66.625,50.6,2.561,2.561,0,0,1,64.067,53.162Z" transform="translate(1.883 -0.034)" fill="#0090ff"/>
    <path id="Path_439" data-name="Path 439" d="M107.14,95.644H5.427a1.592,1.592,0,0,1-1.59-1.59V14.9a1.592,1.592,0,0,1,1.59-1.59h9.045a1.919,1.919,0,0,0,0-3.837H5.427A5.434,5.434,0,0,0,0,14.9V94.054a5.434,5.434,0,0,0,5.427,5.427h13.23V103.7a4.368,4.368,0,0,0,4.363,4.363H42.226l-9.041,17.652a1.919,1.919,0,1,0,3.415,1.749l9.937-19.4H67.751l9.937,19.4a1.919,1.919,0,1,0,3.415-1.749l-9.041-17.652H91.269a4.367,4.367,0,0,0,4.363-4.363V99.482H107.14a1.919,1.919,0,1,0,0-3.837ZM91.794,103.7a.526.526,0,0,1-.525.525H23.02a.526.526,0,0,1-.525-.525V99.482h69.3Z" transform="translate(0 -0.884)" fill="#0090ff"/>
    <path id="Path_440" data-name="Path 440" d="M20.582,13.97H107.3a1.592,1.592,0,0,1,1.59,1.59V33.8a1.919,1.919,0,1,0,3.837,0V15.56a5.434,5.434,0,0,0-5.427-5.427H66.228V6.362a4.819,4.819,0,0,0-4.814-4.814H49.744A4.819,4.819,0,0,0,44.93,6.362v3.771H20.582a1.919,1.919,0,0,0,0,3.837ZM48.767,6.362a.977.977,0,0,1,.977-.976h11.67a.978.978,0,0,1,.976.976v3.771H48.768V6.362Z" transform="translate(1.565 -1.548)" fill="#0090ff"/>
    <path id="Path_441" data-name="Path 441" d="M24.909,63.157a1.919,1.919,0,0,0-1.919,1.919V82.03a1.919,1.919,0,0,0,1.919,1.919h7.784a1.919,1.919,0,0,0,1.919-1.919V65.076a1.919,1.919,0,0,0-1.919-1.919Zm5.865,16.955H26.828V67h3.947Z" transform="translate(1.928 3.619)" fill="#0090ff"/>
    <path id="Path_442" data-name="Path 442" d="M41.156,54.111a1.919,1.919,0,0,0-1.919,1.919v26.76a1.919,1.919,0,0,0,1.919,1.919h7.784a1.919,1.919,0,0,0,1.919-1.919V56.029a1.919,1.919,0,0,0-1.919-1.919Zm5.866,26.76H43.075V57.948h3.947Z" transform="translate(3.29 2.86)" fill="#0090ff"/>
    <path id="Path_443" data-name="Path 443" d="M57.4,63.157a1.919,1.919,0,0,0-1.919,1.919V82.03A1.919,1.919,0,0,0,57.4,83.949h7.784a1.919,1.919,0,0,0,1.919-1.919V65.076a1.919,1.919,0,0,0-1.919-1.919ZM63.27,80.112H59.323V67H63.27Z" transform="translate(4.653 3.619)" fill="#0090ff"/>
    <path id="Path_444" data-name="Path 444" d="M73.652,73.6a1.919,1.919,0,0,0-1.919,1.919v5.633a1.919,1.919,0,0,0,1.919,1.919h7.784a1.919,1.919,0,0,0,0-3.837H75.571V75.522A1.919,1.919,0,0,0,73.652,73.6Z" transform="translate(6.015 4.494)" fill="#0090ff"/>
    <path id="Path_445" data-name="Path 445" d="M124.156,95.383,113.149,76.318a25.091,25.091,0,1,0-24.81,7.08,25.216,25.216,0,0,0,6.531.865,24.763,24.763,0,0,0,5.648-.652l11.005,19.066a7.294,7.294,0,1,0,12.633-7.294ZM89.332,79.691a21.241,21.241,0,1,1,16.117-2.122A21.1,21.1,0,0,1,89.332,79.691Zm30.237,22.332a3.46,3.46,0,0,1-4.722-1.264L104.259,82.415a25.185,25.185,0,0,0,5.983-3.458L120.833,97.3a3.453,3.453,0,0,1-1.264,4.722Z" transform="translate(5.85 1.182)" fill="#0090ff"/>
    <path id="Path_446" data-name="Path 446" d="M111.7,64.05a18.158,18.158,0,0,0-.908-13.154,1.919,1.919,0,1,0-3.471,1.635,14.371,14.371,0,1,1-4.332-5.354,1.919,1.919,0,1,0,2.315-3.06,18.221,18.221,0,1,0,6.4,19.932Z" transform="translate(6.379 1.712)" fill="#0090ff"/>
  </g>
</svg>
